<svg width="26" height="5" viewBox="0 0 26 5" fill="none" xmlns="http://www.w3.org/2000/svg">
<path d="M2.376 4.8C1.624 4.8 1.04 4.592 0.624 4.176C0.208 3.76 0 3.168 0 2.4C0 1.696 0.216 1.12 0.648 0.671999C1.096 0.223999 1.672 0 2.376 0C3.128 0 3.712 0.207999 4.128 0.623999C4.544 1.04 4.752 1.632 4.752 2.4C4.752 3.104 4.528 3.68 4.08 4.128C3.648 4.576 3.08 4.8 2.376 4.8Z" fill="white"/>
<path d="M12.6557 4.8C11.9037 4.8 11.3197 4.592 10.9037 4.176C10.4877 3.76 10.2797 3.168 10.2797 2.4C10.2797 1.696 10.4957 1.12 10.9277 0.671999C11.3757 0.223999 11.9517 0 12.6557 0C13.4077 0 13.9917 0.207999 14.4077 0.623999C14.8237 1.04 15.0317 1.632 15.0317 2.4C15.0317 3.104 14.8077 3.68 14.3597 4.128C13.9277 4.576 13.3597 4.8 12.6557 4.8Z" fill="white"/>
<path d="M22.9354 4.8C22.1834 4.8 21.5994 4.592 21.1834 4.176C20.7674 3.76 20.5594 3.168 20.5594 2.4C20.5594 1.696 20.7754 1.12 21.2074 0.671999C21.6554 0.223999 22.2314 0 22.9354 0C23.6874 0 24.2714 0.207999 24.6874 0.623999C25.1034 1.04 25.3114 1.632 25.3114 2.4C25.3114 3.104 25.0874 3.68 24.6394 4.128C24.2074 4.576 23.6394 4.8 22.9354 4.8Z" fill="white"/>
</svg>
